<svg width="53" height="53" viewBox="0 0 53 53" fill="none" xmlns="http://www.w3.org/2000/svg">
<rect width="53" height="53" rx="26.5" fill="#06A7C2"/>
<path d="M26.5 40.9375C22.6709 40.9375 18.9987 39.4164 16.2911 36.7089C13.5836 34.0013 12.0625 30.3291 12.0625 26.5C12.0625 22.6709 13.5836 18.9987 16.2911 16.2911C18.9987 13.5836 22.6709 12.0625 26.5 12.0625C30.3291 12.0625 34.0013 13.5836 36.7089 16.2911C39.4164 18.9987 40.9375 22.6709 40.9375 26.5C40.9375 30.3291 39.4164 34.0013 36.7089 36.7089C34.0013 39.4164 30.3291 40.9375 26.5 40.9375ZM26.5 43C30.8761 43 35.0729 41.2616 38.1673 38.1673C41.2616 35.0729 43 30.8761 43 26.5C43 22.1239 41.2616 17.9271 38.1673 14.8327C35.0729 11.7384 30.8761 10 26.5 10C22.1239 10 17.9271 11.7384 14.8327 14.8327C11.7384 17.9271 10 22.1239 10 26.5C10 30.8761 11.7384 35.0729 14.8327 38.1673C17.9271 41.2616 22.1239 43 26.5 43V43Z" fill="white"/>
<path d="M26.5 18.25C26.7735 18.25 27.0358 18.3586 27.2292 18.552C27.4226 18.7454 27.5312 19.0077 27.5312 19.2812V25.4688H33.7188C33.9923 25.4688 34.2546 25.5774 34.448 25.7708C34.6414 25.9642 34.75 26.2265 34.75 26.5C34.75 26.7735 34.6414 27.0358 34.448 27.2292C34.2546 27.4226 33.9923 27.5312 33.7188 27.5312H27.5312V33.7188C27.5312 33.9923 27.4226 34.2546 27.2292 34.448C27.0358 34.6414 26.7735 34.75 26.5 34.75C26.2265 34.75 25.9642 34.6414 25.7708 34.448C25.5774 34.2546 25.4688 33.9923 25.4688 33.7188V27.5312H19.2812C19.0077 27.5312 18.7454 27.4226 18.552 27.2292C18.3586 27.0358 18.25 26.7735 18.25 26.5C18.25 26.2265 18.3586 25.9642 18.552 25.7708C18.7454 25.5774 19.0077 25.4688 19.2812 25.4688H25.4688V19.2812C25.4688 19.0077 25.5774 18.7454 25.7708 18.552C25.9642 18.3586 26.2265 18.25 26.5 18.25V18.25Z" fill="white"/>
</svg>
