<svg width="22" height="22" viewBox="0 0 22 22" fill="none" xmlns="http://www.w3.org/2000/svg">
<path d="M11 22C8.08262 22 5.28473 20.8411 3.22182 18.7782C1.15892 16.7153 0 13.9174 0 11C0 8.08262 1.15892 5.28473 3.22182 3.22183C5.28473 1.15893 8.08262 0 11 0C13.9174 0 16.7153 1.15893 18.7782 3.22183C20.8411 5.28473 22 8.08262 22 11C22 13.9174 20.8411 16.7153 18.7782 18.7782C16.7153 20.8411 13.9174 22 11 22ZM15.8125 11.6875C15.9948 11.6875 16.1697 11.6151 16.2986 11.4861C16.4276 11.3572 16.5 11.1823 16.5 11C16.5 10.8177 16.4276 10.6428 16.2986 10.5139C16.1697 10.3849 15.9948 10.3125 15.8125 10.3125H7.84713L10.7992 7.36175C10.9283 7.23266 11.0009 7.05757 11.0009 6.875C11.0009 6.69243 10.9283 6.51734 10.7992 6.38825C10.6702 6.25916 10.4951 6.18663 10.3125 6.18663C10.1299 6.18663 9.95484 6.25916 9.82575 6.38825L5.70075 10.5133C5.63672 10.5771 5.58593 10.653 5.55127 10.7365C5.51661 10.82 5.49877 10.9096 5.49877 11C5.49877 11.0904 5.51661 11.18 5.55127 11.2635C5.58593 11.347 5.63672 11.4229 5.70075 11.4867L9.82575 15.6117C9.95484 15.7408 10.1299 15.8134 10.3125 15.8134C10.4951 15.8134 10.6702 15.7408 10.7992 15.6117C10.9283 15.4827 11.0009 15.3076 11.0009 15.125C11.0009 14.9424 10.9283 14.7673 10.7992 14.6383L7.84713 11.6875H15.8125Z" fill="#02282F" fill-opacity="0.35"/>
</svg>
