<svg width="100" height="100" viewBox="0 0 100 100" fill="none" xmlns="http://www.w3.org/2000/svg">
<path d="M50 100C36.7392 100 24.0215 94.7322 14.6447 85.3553C5.26784 75.9785 0 63.2608 0 50C0 36.7392 5.26784 24.0215 14.6447 14.6447C24.0215 5.26784 36.7392 0 50 0C63.2608 0 75.9785 5.26784 85.3553 14.6447C94.7322 24.0215 100 36.7392 100 50C100 63.2608 94.7322 75.9785 85.3553 85.3553C75.9785 94.7322 63.2608 100 50 100V100ZM71.875 53.125C72.7038 53.125 73.4987 52.7958 74.0847 52.2097C74.6708 51.6237 75 50.8288 75 50C75 49.1712 74.6708 48.3763 74.0847 47.7903C73.4987 47.2042 72.7038 46.875 71.875 46.875H35.6687L49.0875 33.4625C49.6743 32.8757 50.0039 32.0798 50.0039 31.25C50.0039 30.4202 49.6743 29.6243 49.0875 29.0375C48.5007 28.4507 47.7048 28.1211 46.875 28.1211C46.0452 28.1211 45.2493 28.4507 44.6625 29.0375L25.9125 47.7875C25.6215 48.0778 25.3906 48.4226 25.233 48.8023C25.0755 49.1819 24.9944 49.589 24.9944 50C24.9944 50.411 25.0755 50.8181 25.233 51.1977C25.3906 51.5774 25.6215 51.9222 25.9125 52.2125L44.6625 70.9625C45.2493 71.5493 46.0452 71.8789 46.875 71.8789C47.7048 71.8789 48.5007 71.5493 49.0875 70.9625C49.6743 70.3757 50.0039 69.5798 50.0039 68.75C50.0039 67.9202 49.6743 67.1243 49.0875 66.5375L35.6687 53.125H71.875Z" fill="#3A4E52"/>
</svg>
