<svg width="512" height="513" viewBox="0 0 512 513" fill="none" xmlns="http://www.w3.org/2000/svg">
<path d="M32 384.006C32.0275 397.44 34.8923 410.718 40.4068 422.969C45.9213 435.22 53.9612 446.167 64 455.096V496.006C64 500.249 65.6857 504.319 68.6863 507.319C71.6869 510.32 75.7565 512.006 80 512.006H112C116.243 512.006 120.313 510.32 123.314 507.319C126.314 504.319 128 500.249 128 496.006V480.006H384V496.006C384 500.249 385.686 504.319 388.686 507.319C391.687 510.32 395.757 512.006 400 512.006H432C436.243 512.006 440.313 510.32 443.314 507.319C446.314 504.319 448 500.249 448 496.006V455.096C458.039 446.167 466.079 435.22 471.593 422.969C477.108 410.718 479.972 397.44 480 384.006V336.006H32V384.006ZM496 256.006H80V69.2557C80.0091 65.0564 81.2616 60.9538 83.5996 57.4655C85.9375 53.9772 89.2562 51.2594 93.1369 49.6549C97.0176 48.0504 101.287 47.6311 105.405 48.4499C109.524 49.2687 113.308 51.2889 116.28 54.2557L135.55 73.5157C122.42 103.396 127.94 132.626 144.17 153.246L144 153.416C141.011 156.415 139.332 160.476 139.332 164.711C139.332 168.945 141.011 173.007 144 176.006L155.31 187.316C156.796 188.802 158.56 189.981 160.501 190.785C162.443 191.589 164.524 192.003 166.625 192.003C168.726 192.003 170.807 191.589 172.749 190.785C174.69 189.981 176.454 188.802 177.94 187.316L283.31 81.9457C284.796 80.46 285.975 78.696 286.779 76.7545C287.584 74.8131 287.998 72.7322 287.998 70.6307C287.998 68.5293 287.584 66.4484 286.779 64.507C285.975 62.5655 284.796 60.8015 283.31 59.3157L272 48.0057C269 45.0074 264.932 43.3232 260.69 43.3232C256.448 43.3232 252.38 45.0074 249.38 48.0057L249.21 48.1757C228.59 31.9457 199.38 26.4257 169.48 39.5557L150.22 20.2857C140.535 10.5998 128.196 4.00346 114.762 1.33096C101.328 -1.34154 87.4029 0.0298543 74.7484 5.27169C62.0939 10.5135 51.2781 19.3904 43.6689 30.7795C36.0597 42.1687 31.9989 55.5586 32 69.2557V256.006H16C11.7565 256.006 7.68687 257.691 4.68629 260.692C1.68571 263.693 0 267.762 0 272.006L0 288.006C0 292.249 1.68571 296.319 4.68629 299.319C7.68687 302.32 11.7565 304.006 16 304.006H496C500.243 304.006 504.313 302.32 507.314 299.319C510.314 296.319 512 292.249 512 288.006V272.006C512 267.762 510.314 263.693 507.314 260.692C504.313 257.691 500.243 256.006 496 256.006Z" fill="white"/>
</svg>
