<svg width="375" height="134" viewBox="0 0 375 134" fill="none" xmlns="http://www.w3.org/2000/svg">
<path d="M83.9746 132.057V130.229H88.709C93.4473 130.229 96.7598 129.229 98.6465 127.229C100.529 125.221 101.475 121.424 101.475 115.838V17.7915C101.475 12.4399 100.529 8.76025 98.6465 6.76025C96.7598 4.76025 93.4473 3.76025 88.709 3.76025H83.9746V1.93213H130.459C145.154 1.93213 156.088 4.45557 163.256 9.49463C170.42 14.5376 174.006 22.4009 174.006 33.0884C174.006 42.4556 171.357 49.4751 166.068 54.1509C160.787 58.8306 153.35 61.772 143.756 62.979V63.354C156.389 64.0845 165.498 67.3345 171.084 73.104C176.678 78.8774 179.475 86.6196 179.475 96.3384C179.475 108.487 175.857 117.475 168.631 123.307C161.4 129.143 150.494 132.057 135.912 132.057H83.9746ZM113.865 62.8071H129.912C141.818 62.8071 149.982 60.4712 154.412 55.7915C158.85 51.1157 161.068 43.7915 161.068 33.8228C161.068 23.0103 158.666 15.2993 153.865 10.6821C149.072 6.06885 140.963 3.76025 129.537 3.76025H113.865V62.8071ZM113.865 130.229H135.006C146.432 130.229 154.541 127.557 159.334 122.213C164.135 116.87 166.537 108.366 166.537 96.6978C166.537 85.397 164.256 77.2251 159.693 72.1821C155.139 67.1431 147.154 64.6196 135.74 64.6196H113.865V130.229Z" fill="black"/>
<path d="M255.651 133.885C243.87 133.885 234.058 131.151 226.214 125.682C218.378 120.213 212.519 112.471 208.636 102.448C204.749 92.4165 202.808 80.6626 202.808 67.1821C202.808 53.5688 204.812 41.7524 208.823 31.729C212.831 21.7095 218.843 13.9321 226.854 8.40088C234.874 2.86963 244.901 0.104004 256.933 0.104004C269.202 0.104004 278.253 2.23682 284.089 6.49463C289.921 10.7446 292.839 15.604 292.839 21.0728C292.839 24.4712 291.831 26.9907 289.823 28.6353C287.823 30.272 285.3 31.0884 282.261 31.0884C282.144 20.8813 280.171 13.5024 276.339 8.94775C272.515 4.39697 265.562 2.11963 255.479 2.11963C242.112 2.11963 232.206 7.67822 225.761 18.7915C219.323 29.9087 216.104 45.854 216.104 66.6353C216.104 87.897 219.354 104.116 225.854 115.292C232.354 126.471 242.714 132.057 256.933 132.057C265.44 132.057 272.187 130.084 277.167 126.135C282.144 122.19 285.729 116.268 287.917 108.37C290.593 109.213 291.933 110.975 291.933 113.651C291.933 116.331 290.562 119.245 287.823 122.401C285.093 125.557 281.05 128.26 275.698 130.51C270.354 132.76 263.671 133.885 255.651 133.885Z" fill="black"/>
<path d="M0.046875 52.3281H374.953V87.5781H0.046875V52.3281Z" fill="#F1FDFF"/>
<path d="M71.3281 79.2241H63.5156L63.5469 78.9116H63.9375C64.4883 78.9116 64.9609 78.7202 65.3594 78.3335C65.7539 77.9507 65.9609 77.4819 65.9844 76.9272V59.1304C65.9844 58.5796 65.7812 58.1108 65.375 57.7241C64.9688 57.3413 64.4883 57.146 63.9375 57.146H63.5469L63.5156 56.8179H69.875C72.0703 56.8179 73.7812 57.3101 75 58.2866C76.2188 59.2554 76.8281 60.5483 76.8281 62.1616C76.8281 63.4429 76.4844 64.5054 75.7969 65.3491C75.1172 66.1929 74.2891 66.7554 73.3125 67.0366C74.9883 67.2866 76.3164 67.9819 77.2969 69.1147C78.2852 70.2397 78.7812 71.6616 78.7812 73.3804C78.7812 75.0991 78.125 76.5054 76.8125 77.5991C75.5 78.6851 73.6719 79.2241 71.3281 79.2241ZM68.0625 78.0679H71.1875C71.207 78.0679 71.2266 78.0679 71.25 78.0679C72.875 78.0679 74.1328 77.6265 75.0312 76.7397C75.9258 75.8569 76.375 74.6069 76.375 72.9897C76.375 72.0757 76.2188 71.2671 75.9062 70.5679C75.6016 69.8726 75.2188 69.3257 74.75 68.9272C73.5078 67.896 71.6484 67.3804 69.1719 67.3804C69.1719 67.3804 69.1602 67.3804 69.1406 67.3804V67.0991C69.1602 67.0991 69.2578 67.0991 69.4375 67.0991C69.625 67.0991 69.8906 67.0796 70.2344 67.0366C70.5781 66.9976 70.9609 66.9233 71.3906 66.8179C71.8164 66.7046 72.1953 66.5327 72.5312 66.3022C72.875 66.064 73.1953 65.7827 73.5 65.4585C74.1133 64.7632 74.4219 63.7163 74.4219 62.3179C74.4219 60.9116 74.0195 59.8179 73.2188 59.0366C72.4258 58.2476 71.2695 57.8491 69.75 57.8491H68.0625V78.0679Z" fill="black"/>
<path d="M88.0908 61.021H86.3877V77.1772C86.4072 77.8335 86.7041 78.3335 87.2783 78.6772C87.5596 78.8335 87.8721 78.9116 88.2158 78.9116H88.6221L88.6533 79.2241H82.1064V78.9116H82.5439C83.0322 78.9116 83.4541 78.7476 83.8096 78.4116C84.1611 78.0796 84.3408 77.6772 84.3408 77.2085V62.0054C84.3408 61.5366 84.1611 61.146 83.8096 60.8335C83.4541 60.5132 83.0322 60.3491 82.5439 60.3491H82.1064V60.021H90.1377C92.1377 60.021 93.7158 60.4819 94.8721 61.396C96.0361 62.314 96.6221 63.521 96.6221 65.021C96.6221 66.5132 96.1533 67.7632 95.2158 68.771C94.2783 69.771 93.083 70.3452 91.6377 70.4897C92.3135 70.7944 93.1377 71.6265 94.1064 72.9897C94.083 72.9897 94.4502 73.4585 95.2002 74.396C95.958 75.3335 96.5674 76.064 97.0283 76.5835C97.4854 77.1069 97.8643 77.5054 98.1689 77.7866C98.958 78.5366 99.8643 78.9116 100.888 78.9116V79.2241H99.8877C98.208 79.2241 96.8877 78.896 95.9189 78.2397C95.2002 77.7397 94.5361 77.1304 93.9346 76.4116C93.8096 76.2358 93.2705 75.4819 92.3252 74.146C91.376 72.814 90.8721 72.1069 90.8096 72.021C89.6533 70.5952 88.5752 69.8804 87.5752 69.8804V69.5679C90.0635 69.5679 91.5674 69.439 92.0908 69.1772C92.7861 68.814 93.2666 68.4272 93.5283 68.021C94.0596 67.1694 94.3252 66.2319 94.3252 65.2085C94.3252 63.9077 93.9385 62.9077 93.1689 62.2085C92.4072 61.5015 91.376 61.1147 90.0752 61.0522C89.4893 61.0327 88.8291 61.021 88.0908 61.021Z" fill="black"/>
<path d="M102.603 78.9116C103.185 78.9116 103.689 78.7397 104.119 78.396C104.544 78.0522 104.759 77.646 104.759 77.1772V62.0679C104.759 61.5991 104.544 61.2007 104.119 60.8647C103.689 60.521 103.173 60.3491 102.572 60.3491H102.166V60.021H109.384V60.3491H108.978C108.404 60.3491 107.908 60.5132 107.494 60.8335C107.076 61.146 106.845 61.5366 106.806 62.0054V77.2085C106.826 77.6772 107.048 78.0796 107.478 78.4116C107.904 78.7476 108.404 78.9116 108.978 78.9116H109.384L109.431 79.2241H102.166V78.9116H102.603Z" fill="black"/>
<path d="M123.306 79.6772C120.044 79.6538 117.466 78.7515 115.572 76.9585C113.685 75.1694 112.744 72.7202 112.744 69.6147C112.744 66.5132 113.685 64.064 115.572 62.271C117.466 60.4819 120.044 59.5835 123.306 59.5835C124.626 59.5835 125.962 59.7554 127.306 60.0991C128.65 60.4351 129.81 60.896 130.791 61.4897L131.509 66.0366H131.212C130.294 62.3726 127.65 60.5366 123.275 60.5366C120.732 60.5366 118.728 61.3491 117.259 62.9741C115.791 64.5913 115.056 66.8101 115.056 69.6304C115.056 71.4663 115.384 73.0601 116.041 74.4116C116.705 75.7671 117.669 76.8179 118.931 77.5679C120.181 78.3101 121.638 78.6772 123.306 78.6772C124.97 78.6772 126.431 78.4272 127.681 77.9272C128.931 77.4272 129.962 76.6069 130.775 75.4585C131.595 74.3022 132.064 72.8726 132.181 71.1616H132.462L132.103 75.5366C131.279 76.8179 130.076 77.8296 128.494 78.5679C126.908 79.3062 125.181 79.6772 123.306 79.6772Z" fill="black"/>
<path d="M153.829 79.2241H152.642C150.556 79.2241 148.989 78.6147 147.938 77.396L140.907 69.6929L147.782 61.5991C148.021 61.2983 148.056 61.0171 147.892 60.7554C147.735 60.4858 147.462 60.3491 147.079 60.3491H146.798V60.021H153.313V60.3491H153.188C151.884 60.3491 150.853 60.7319 150.095 61.4897L143.11 68.9585L151.048 77.5991C151.431 78.0679 151.829 78.396 152.235 78.5835C152.642 78.771 153.173 78.8804 153.829 78.9116V79.2241ZM141.673 78.9116H142.017V79.2241H135.47V78.9116H135.845C136.353 78.9116 136.79 78.7397 137.157 78.396C137.521 78.0522 137.712 77.646 137.735 77.1772V62.0679C137.712 61.5991 137.521 61.2007 137.157 60.8647C136.79 60.521 136.353 60.3491 135.845 60.3491H135.47V60.021H142.017V60.3491H141.642C140.954 60.3491 140.423 60.6265 140.048 61.1772C139.868 61.439 139.782 61.7241 139.782 62.0366V77.2085C139.782 77.6772 139.97 78.0796 140.345 78.4116C140.72 78.7476 141.161 78.9116 141.673 78.9116Z" fill="black"/>
<path d="M181.728 67.2241C181.278 67.2241 180.962 67.3413 180.774 67.5679C180.595 67.7866 180.509 68.0015 180.509 68.2085C180.509 68.4077 180.556 68.7397 180.649 69.2085C180.751 69.6772 180.806 70.2983 180.806 71.0679C180.806 72.7554 180.407 74.2944 179.618 75.6772C180.388 76.3335 180.997 76.8413 181.446 77.1929C181.892 77.5483 182.478 77.9116 183.196 78.2866C183.923 78.6538 184.595 78.8608 185.212 78.9116V79.2241C185.188 79.2241 185.013 79.2241 184.681 79.2241C184.356 79.2241 184.122 79.2241 183.978 79.2241C183.841 79.2241 183.587 79.2163 183.212 79.1929C182.837 79.1733 182.528 79.1382 182.29 79.0835C182.06 79.0327 181.751 78.9663 181.368 78.8804C180.993 78.7866 180.653 78.6694 180.353 78.521C179.579 78.1772 178.907 77.7827 178.337 77.3335C176.825 78.8022 174.853 79.5366 172.415 79.5366C169.298 79.5366 166.888 78.8921 165.181 77.5991C163.47 76.2983 162.618 74.4507 162.618 72.0522C162.618 69.4077 163.907 67.4351 166.493 66.1304C165.681 64.8296 165.274 63.4038 165.274 61.8491C165.274 60.2671 165.853 58.9663 167.009 57.9429C168.204 56.9038 169.774 56.3804 171.712 56.3804C172.806 56.3804 173.841 56.5913 174.821 57.0054C175.798 57.4233 176.575 57.9702 177.149 58.646L176.571 62.271H176.259C176.259 60.7319 175.841 59.521 175.009 58.646C174.173 57.771 173.11 57.3335 171.821 57.3335C170.528 57.3335 169.481 57.7632 168.681 58.6147C167.888 59.4702 167.493 60.5366 167.493 61.8179C167.493 63.0991 167.884 64.3101 168.665 65.4429C169.454 66.5679 171.001 68.1577 173.306 70.2085C175.618 72.2515 177.306 73.7202 178.368 74.6147C178.813 73.6382 179.04 72.6265 179.04 71.5835C179.04 70.5327 178.81 69.5444 178.353 68.6147C177.892 67.689 177.216 67.2241 176.321 67.2241H175.837V66.9116H182.212V67.2241H181.728ZM177.243 76.4116C171.782 71.9116 168.372 68.7476 167.009 66.9116C165.642 68.1851 164.962 69.8491 164.962 71.9116C164.962 73.9741 165.618 75.6069 166.931 76.8022C168.243 77.9897 170.071 78.5835 172.415 78.5835C174.384 78.5835 175.993 77.8608 177.243 76.4116Z" fill="black"/>
<path d="M203.674 79.6772C200.299 79.6538 197.549 78.5796 195.424 76.4429C193.307 74.3101 192.252 71.4976 192.252 68.0054C192.252 64.5171 193.307 61.7085 195.424 59.5835C197.549 57.4507 200.361 56.3804 203.861 56.3804C206.725 56.3804 209.256 57.1069 211.455 58.5522L212.096 63.0679H211.799C211.33 61.2358 210.381 59.8257 208.955 58.8335C207.525 57.8335 205.83 57.3335 203.861 57.3335C201.068 57.3335 198.834 58.3101 197.158 60.2554C195.479 62.1929 194.643 64.7632 194.643 67.9585C194.643 71.1577 195.471 73.7358 197.127 75.6929C198.783 77.6421 200.963 78.646 203.674 78.7085C206.057 78.7085 208.053 78.0601 209.658 76.7554C211.385 75.3491 212.432 73.0601 212.799 69.8804H213.049L212.674 74.9116C210.725 78.0913 207.725 79.6772 203.674 79.6772Z" fill="black"/>
<path d="M221.613 60.8491C223.257 60.0054 225.066 59.5835 227.035 59.5835C229.011 59.5835 230.82 60.0054 232.457 60.8491C234.101 61.6851 235.41 62.8726 236.378 64.4116C237.355 65.9429 237.847 67.6851 237.847 69.6304C237.847 71.5679 237.355 73.3101 236.378 74.8491C235.41 76.3804 234.101 77.5679 232.457 78.4116C230.82 79.2554 229.136 79.6772 227.41 79.6772C225.679 79.6772 224.152 79.4312 222.832 78.9429C221.507 78.4429 220.363 77.7632 219.394 76.896C218.425 76.021 217.652 74.9546 217.082 73.6929C216.519 72.4351 216.238 70.9546 216.238 69.2554C216.238 67.5601 216.722 65.9429 217.691 64.4116C218.667 62.8726 219.976 61.6851 221.613 60.8491ZM221.019 76.1772C222.632 77.8647 224.632 78.7085 227.019 78.7085C229.414 78.7085 231.417 77.8647 233.035 76.1772C234.66 74.4819 235.472 72.2983 235.472 69.6304C235.472 66.9663 234.66 64.7827 233.035 63.0835C231.417 61.3882 229.414 60.5366 227.019 60.5366C224.632 60.5366 222.632 61.3882 221.019 63.0835C219.414 64.7827 218.613 66.9663 218.613 69.6304C218.613 72.2983 219.414 74.4819 221.019 76.1772Z" fill="black"/>
<path d="M262.672 60.3491C262.203 60.3491 261.797 60.5054 261.453 60.8179C261.109 61.1226 260.926 61.4976 260.906 61.9429V75.5835C260.906 76.814 260.984 77.9858 261.141 79.0991L261.203 79.6772H260.906L244.266 63.896V77.2397C244.266 77.7085 244.438 78.1069 244.781 78.4272C245.125 78.7515 245.539 78.9116 246.031 78.9116H246.578V79.2241H240.531V78.9116H241.062C241.562 78.9116 241.977 78.7515 242.312 78.4272C242.656 78.1069 242.828 77.7085 242.828 77.2397V63.5366C242.828 62.2476 242.754 61.0835 242.609 60.0522L242.547 59.5366L242.891 59.5835L259.5 75.2241V61.9429C259.457 61.4976 259.266 61.1226 258.922 60.8179C258.586 60.5054 258.18 60.3491 257.703 60.3491H257.172V60.021H263.219V60.3491H262.672Z" fill="black"/>
<path d="M287.047 69.6304C287.047 72.5913 286.125 74.9272 284.281 76.646C282.438 78.3647 279.938 79.2241 276.781 79.2241H266.094V78.9116H266.5C267.008 78.9116 267.438 78.7397 267.781 78.396C268.125 78.0522 268.305 77.646 268.328 77.1772V62.0679C268.305 61.5601 268.117 61.146 267.766 60.8335C267.41 60.5132 266.977 60.3491 266.469 60.3491H266.094V60.021H276.781C278.863 60.021 280.676 60.4077 282.219 61.1772C283.77 61.9507 284.961 63.0601 285.797 64.5054C286.629 65.9546 287.047 67.6616 287.047 69.6304ZM270.406 60.9897V78.271H276.781C279.227 78.271 281.164 77.5015 282.594 75.9585C284.031 74.4077 284.75 72.2983 284.75 69.6304C284.75 66.9663 284.031 64.8608 282.594 63.3179C281.164 61.7671 279.227 60.9897 276.781 60.9897H270.406Z" fill="black"/>
<path d="M295.611 60.8491C297.255 60.0054 299.064 59.5835 301.033 59.5835C303.009 59.5835 304.818 60.0054 306.455 60.8491C308.099 61.6851 309.408 62.8726 310.376 64.4116C311.353 65.9429 311.845 67.6851 311.845 69.6304C311.845 71.5679 311.353 73.3101 310.376 74.8491C309.408 76.3804 308.099 77.5679 306.455 78.4116C304.818 79.2554 303.134 79.6772 301.408 79.6772C299.677 79.6772 298.15 79.4312 296.83 78.9429C295.505 78.4429 294.361 77.7632 293.392 76.896C292.423 76.021 291.65 74.9546 291.08 73.6929C290.517 72.4351 290.236 70.9546 290.236 69.2554C290.236 67.5601 290.72 65.9429 291.689 64.4116C292.666 62.8726 293.974 61.6851 295.611 60.8491ZM295.017 76.1772C296.63 77.8647 298.63 78.7085 301.017 78.7085C303.412 78.7085 305.416 77.8647 307.033 76.1772C308.658 74.4819 309.47 72.2983 309.47 69.6304C309.47 66.9663 308.658 64.7827 307.033 63.0835C305.416 61.3882 303.412 60.5366 301.017 60.5366C298.63 60.5366 296.63 61.3882 295.017 63.0835C293.412 64.7827 292.611 66.9663 292.611 69.6304C292.611 72.2983 293.412 74.4819 295.017 76.1772Z" fill="black"/>
</svg>
