<svg width="79" height="79" viewBox="0 0 79 79" fill="none" xmlns="http://www.w3.org/2000/svg">
<rect width="79" height="79" rx="11" fill="#E84848"/>
<path d="M25.2525 58.5858C26.0335 59.3668 27.2998 59.3668 28.0809 58.5858L38.5858 48.0809C39.3668 47.2998 40.6332 47.2998 41.4142 48.0809L51.9191 58.5858C52.7002 59.3668 53.9665 59.3668 54.7475 58.5858L58.5858 54.7475C59.3668 53.9665 59.3668 52.7002 58.5858 51.9191L48.0809 41.4142C47.2998 40.6332 47.2998 39.3668 48.0809 38.5858L58.5858 28.0809C59.3668 27.2998 59.3668 26.0335 58.5858 25.2525L54.7475 21.4142C53.9665 20.6332 52.7002 20.6332 51.9191 21.4142L41.4142 31.9191C40.6332 32.7002 39.3668 32.7002 38.5858 31.9191L28.0809 21.4142C27.2998 20.6332 26.0335 20.6332 25.2525 21.4142L21.4142 25.2525C20.6332 26.0335 20.6332 27.2998 21.4142 28.0809L31.9191 38.5858C32.7002 39.3668 32.7002 40.6332 31.9191 41.4142L21.4142 51.9191C20.6332 52.7002 20.6332 53.9665 21.4142 54.7475L25.2525 58.5858Z" fill="white"/>
</svg>
