<svg width="100" height="100" viewBox="0 0 100 100" fill="none" xmlns="http://www.w3.org/2000/svg">
<path d="M50 0C63.2608 0 75.9785 5.26784 85.3553 14.6447C94.7322 24.0215 100 36.7392 100 50C100 63.2608 94.7322 75.9785 85.3553 85.3553C75.9785 94.7322 63.2608 100 50 100C36.7392 100 24.0215 94.7322 14.6447 85.3553C5.26784 75.9785 0 63.2608 0 50C0 36.7392 5.26784 24.0215 14.6447 14.6447C24.0215 5.26784 36.7392 0 50 0V0ZM28.125 46.875C27.2962 46.875 26.5013 47.2042 25.9153 47.7903C25.3292 48.3763 25 49.1712 25 50C25 50.8288 25.3292 51.6237 25.9153 52.2097C26.5013 52.7958 27.2962 53.125 28.125 53.125H64.3313L50.9125 66.5375C50.3257 67.1243 49.9961 67.9202 49.9961 68.75C49.9961 69.5798 50.3257 70.3757 50.9125 70.9625C51.4993 71.5493 52.2952 71.8789 53.125 71.8789C53.9548 71.8789 54.7507 71.5493 55.3375 70.9625L74.0875 52.2125C74.3785 51.9222 74.6094 51.5774 74.767 51.1977C74.9245 50.8181 75.0056 50.411 75.0056 50C75.0056 49.589 74.9245 49.1819 74.767 48.8023C74.6094 48.4226 74.3785 48.0778 74.0875 47.7875L55.3375 29.0375C54.7507 28.4507 53.9548 28.1211 53.125 28.1211C52.2952 28.1211 51.4993 28.4507 50.9125 29.0375C50.3257 29.6243 49.9961 30.4202 49.9961 31.25C49.9961 32.0798 50.3257 32.8757 50.9125 33.4625L64.3313 46.875H28.125Z" fill="#3A4E52"/>
</svg>
