<svg width="37" height="37" viewBox="0 0 37 37" fill="none" xmlns="http://www.w3.org/2000/svg">
<path d="M2 7C2 4.23858 4.23858 2 7 2H30C32.7614 2 35 4.23858 35 7V30C35 32.7614 32.7614 35 30 35H7C4.23858 35 2 32.7614 2 30V7Z" stroke="black" stroke-width="3" stroke-linecap="round" stroke-linejoin="round"/>
<path d="M5.14307 31.8572L19.7674 19.8918C21.3704 18.5802 23.6161 18.3927 25.4143 19.4203L33.4288 24" stroke="black" stroke-width="3" stroke-linecap="round" stroke-linejoin="round"/>
<path d="M11.4284 13C12.2962 13 12.9998 12.2964 12.9998 11.4285C12.9998 10.5607 12.2962 9.85712 11.4284 9.85712C10.5605 9.85712 9.85693 10.5607 9.85693 11.4285C9.85693 12.2964 10.5605 13 11.4284 13Z" fill="black" stroke="black" stroke-width="3" stroke-linecap="round" stroke-linejoin="round"/>
</svg>
