<svg width="70" height="70" viewBox="0 0 70 70" fill="none" xmlns="http://www.w3.org/2000/svg">
<rect width="70" height="70" rx="35" fill="#06A7C2"/>
<path d="M46 46L40.8057 40.7964L46 46ZM43.6842 33.8421C43.6842 36.4524 42.6473 38.9558 40.8015 40.8015C38.9558 42.6473 36.4524 43.6842 33.8421 43.6842C31.2318 43.6842 28.7284 42.6473 26.8827 40.8015C25.0369 38.9558 24 36.4524 24 33.8421C24 31.2318 25.0369 28.7284 26.8827 26.8827C28.7284 25.0369 31.2318 24 33.8421 24C36.4524 24 38.9558 25.0369 40.8015 26.8827C42.6473 28.7284 43.6842 31.2318 43.6842 33.8421V33.8421Z" stroke="white" stroke-width="3" stroke-linecap="round"/>
</svg>
