<svg width="512" height="512" viewBox="0 0 512 512" fill="none" xmlns="http://www.w3.org/2000/svg">
<path d="M160 288H104C99.58 288 96 284.42 96 280V264C96 259.58 99.58 256 104 256H160V192H104C99.58 192 96 188.42 96 184V168C96 163.58 99.58 160 104 160H160V96H104C99.58 96 96 92.42 96 88V72C96 67.58 99.58 64 104 64H160V32C160 14.33 145.67 0 128 0H32C14.33 0 0 14.33 0 32V480C0 482.77 0.91 485.24 1.57 487.8L160 329.38V288ZM480 352H448V408C448 412.42 444.42 416 440 416H424C419.58 416 416 412.42 416 408V352H352V408C352 412.42 348.42 416 344 416H328C323.58 416 320 412.42 320 408V352H256V408C256 412.42 252.42 416 248 416H232C227.58 416 224 412.42 224 408V352H182.63L24.2 510.43C26.76 511.09 29.24 512 32 512H480C497.67 512 512 497.67 512 480V384C512 366.33 497.67 352 480 352Z" fill="#06A7C2"/>
</svg>
