<svg width="60" height="60" viewBox="0 0 60 60" fill="none" xmlns="http://www.w3.org/2000/svg">
<path d="M30 56.25C23.0381 56.25 16.3613 53.4844 11.4384 48.5616C6.51562 43.6387 3.75 36.9619 3.75 30C3.75 23.0381 6.51562 16.3613 11.4384 11.4384C16.3613 6.51562 23.0381 3.75 30 3.75C36.9619 3.75 43.6387 6.51562 48.5616 11.4384C53.4844 16.3613 56.25 23.0381 56.25 30C56.25 36.9619 53.4844 43.6387 48.5616 48.5616C43.6387 53.4844 36.9619 56.25 30 56.25ZM30 60C37.9565 60 45.5871 56.8393 51.2132 51.2132C56.8393 45.5871 60 37.9565 60 30C60 22.0435 56.8393 14.4129 51.2132 8.7868C45.5871 3.16071 37.9565 0 30 0C22.0435 0 14.4129 3.16071 8.7868 8.7868C3.16071 14.4129 0 22.0435 0 30C0 37.9565 3.16071 45.5871 8.7868 51.2132C14.4129 56.8393 22.0435 60 30 60Z" fill="#BAC5C8"/>
<path d="M30 15C30.4973 15 30.9742 15.1975 31.3258 15.5492C31.6775 15.9008 31.875 16.3777 31.875 16.875V28.125H43.125C43.6223 28.125 44.0992 28.3225 44.4508 28.6742C44.8025 29.0258 45 29.5027 45 30C45 30.4973 44.8025 30.9742 44.4508 31.3258C44.0992 31.6775 43.6223 31.875 43.125 31.875H31.875V43.125C31.875 43.6223 31.6775 44.0992 31.3258 44.4508C30.9742 44.8025 30.4973 45 30 45C29.5027 45 29.0258 44.8025 28.6742 44.4508C28.3225 44.0992 28.125 43.6223 28.125 43.125V31.875H16.875C16.3777 31.875 15.9008 31.6775 15.5492 31.3258C15.1975 30.9742 15 30.4973 15 30C15 29.5027 15.1975 29.0258 15.5492 28.6742C15.9008 28.3225 16.3777 28.125 16.875 28.125H28.125V16.875C28.125 16.3777 28.3225 15.9008 28.6742 15.5492C29.0258 15.1975 29.5027 15 30 15Z" fill="#BAC5C8"/>
</svg>
